<svg xmlns="http://www.w3.org/2000/svg" width="720" height="140" viewBox="0 0 720 140" font-family="-apple-system,BlinkMacSystemFont,Segoe UI,Helvetica,Arial,sans-serif"><style>svg{--cf-bg:#0d1117;--cf-bg-alt:#161b22;--cf-border:#21262d;--cf-text:#e6edf3;--cf-text-dim:#8b949e;--cf-text-faint:#6e7681;--cf-accent:#fcd34d;--cf-accent-soft:rgba(252,211,77,0.16);--cf-green:#3fb950;--cf-amber:#d29922;--cf-red:#f85149;--cf-spark:#fcd34d;--cf-spark-bg:rgba(252,211,77,0.18)}@media (prefers-color-scheme: light){svg{--cf-bg:#ffffff;--cf-bg-alt:#f6f8fa;--cf-border:#d0d7de;--cf-text:#1f2328;--cf-text-dim:#656d76;--cf-text-faint:#8c959f;--cf-accent:#d97706;--cf-accent-soft:rgba(217,119,6,0.12);--cf-green:#1a7f37;--cf-amber:#9a6700;--cf-red:#cf222e;--cf-spark:#d97706;--cf-spark-bg:rgba(217,119,6,0.12)}}</style><rect width="720" height="140" rx="12" fill="var(--cf-bg)" stroke="var(--cf-border)"/><text x="18" y="26" font-size="13" font-weight="600" fill="var(--cf-text)">braedonsaunders/bunkhouse</text><text x="702" y="26" text-anchor="end" font-size="10" fill="var(--cf-text-faint)" font-family="ui-monospace,SFMono-Regular,Menlo,monospace">@342e006</text><g transform="translate(18,46)"><text x="0" y="0" font-size="9" font-weight="600" fill="var(--cf-text-dim)" letter-spacing="0.8">FILES</text><text x="0" y="28" font-size="22" font-weight="700" fill="var(--cf-text)">368</text><g transform="translate(0,40)"><svg width="64" height="14" viewBox="0 0 64 14" preserveAspectRatio="none"><path d="M0 0 L8 14 L16 13.95 L24 13.95 L32 13.64 L40 13.64 L48 13.64 L56 13.64 L64 13.64 L64 14 L0 14 Z" fill="var(--cf-spark-bg)" stroke="none"/><path d="M0 0 L8 14 L16 13.95 L24 13.95 L32 13.64 L40 13.64 L48 13.64 L56 13.64 L64 13.64" fill="none" stroke="var(--cf-spark)" stroke-width="1.4" stroke-linecap="round" stroke-linejoin="round"/></svg></g></g><g transform="translate(154.8,46)"><text x="0" y="0" font-size="9" font-weight="600" fill="var(--cf-text-dim)" letter-spacing="0.8">FNS</text><text x="0" y="28" font-size="22" font-weight="700" fill="var(--cf-text)">1.1K</text><g transform="translate(0,40)"><svg width="64" height="14" viewBox="0 0 64 14" preserveAspectRatio="none"><path d="M0 0 L8 14 L16 14 L24 14 L32 13.75 L40 13.75 L48 13.75 L56 13.75 L64 13.75 L64 14 L0 14 Z" fill="var(--cf-spark-bg)" stroke="none"/><path d="M0 0 L8 14 L16 14 L24 14 L32 13.75 L40 13.75 L48 13.75 L56 13.75 L64 13.75" fill="none" stroke="var(--cf-spark)" stroke-width="1.4" stroke-linecap="round" stroke-linejoin="round"/></svg></g></g><g transform="translate(291.6,46)"><text x="0" y="0" font-size="9" font-weight="600" fill="var(--cf-text-dim)" letter-spacing="0.8">LOC</text><text x="0" y="28" font-size="22" font-weight="700" fill="var(--cf-text)">107.4K</text><g transform="translate(0,40)"><svg width="64" height="14" viewBox="0 0 64 14" preserveAspectRatio="none"><path d="M0 0 L8 14 L16 13.99 L24 13.99 L32 13.85 L40 13.85 L48 13.85 L56 13.85 L64 13.85 L64 14 L0 14 Z" fill="var(--cf-spark-bg)" stroke="none"/><path d="M0 0 L8 14 L16 13.99 L24 13.99 L32 13.85 L40 13.85 L48 13.85 L56 13.85 L64 13.85" fill="none" stroke="var(--cf-spark)" stroke-width="1.4" stroke-linecap="round" stroke-linejoin="round"/></svg></g></g><g transform="translate(428.40000000000003,46)"><text x="0" y="0" font-size="9" font-weight="600" fill="var(--cf-text-dim)" letter-spacing="0.8">LANGS</text><text x="0" y="28" font-size="22" font-weight="700" fill="var(--cf-text)">12</text><g transform="translate(0,40)"><svg width="64" height="14" viewBox="0 0 64 14" preserveAspectRatio="none"><path d="M0 7 L8 7 L16 7 L24 7 L32 7 L40 7 L48 7 L56 7 L64 7 L64 14 L0 14 Z" fill="var(--cf-spark-bg)" stroke="none"/><path d="M0 7 L8 7 L16 7 L24 7 L32 7 L40 7 L48 7 L56 7 L64 7" fill="none" stroke="var(--cf-spark)" stroke-width="1.4" stroke-linecap="round" stroke-linejoin="round"/></svg></g></g><g transform="translate(565.2,46)"><text x="0" y="0" font-size="9" font-weight="600" fill="var(--cf-text-dim)" letter-spacing="0.8">TESTS</text><text x="0" y="28" font-size="22" font-weight="700" fill="var(--cf-text)">1</text><g transform="translate(0,40)"><svg width="64" height="14" viewBox="0 0 64 14" preserveAspectRatio="none"><path d="M0 14 L8 14 L16 0 L24 0 L32 0 L40 0 L48 0 L56 0 L64 0 L64 14 L0 14 Z" fill="var(--cf-spark-bg)" stroke="none"/><path d="M0 14 L8 14 L16 0 L24 0 L32 0 L40 0 L48 0 L56 0 L64 0" fill="none" stroke="var(--cf-spark)" stroke-width="1.4" stroke-linecap="round" stroke-linejoin="round"/></svg></g></g><a href="https://github.com/braedonsaunders/codeflow" target="_blank"><text x="702" y="130" text-anchor="end" font-size="9" fill="var(--cf-text-faint)">powered by <tspan font-weight="600" fill="var(--cf-accent)">codeflow</tspan></text></a></svg>