<svg xmlns="http://www.w3.org/2000/svg" width="720" height="140" viewBox="0 0 720 140" font-family="-apple-system,BlinkMacSystemFont,Segoe UI,Helvetica,Arial,sans-serif"><style>svg{--cf-bg:#0d1117;--cf-bg-alt:#161b22;--cf-border:#21262d;--cf-text:#e6edf3;--cf-text-dim:#8b949e;--cf-text-faint:#6e7681;--cf-accent:#fcd34d;--cf-accent-soft:rgba(252,211,77,0.16);--cf-green:#3fb950;--cf-amber:#d29922;--cf-red:#f85149;--cf-spark:#fcd34d;--cf-spark-bg:rgba(252,211,77,0.18)}@media (prefers-color-scheme: light){svg{--cf-bg:#ffffff;--cf-bg-alt:#f6f8fa;--cf-border:#d0d7de;--cf-text:#1f2328;--cf-text-dim:#656d76;--cf-text-faint:#8c959f;--cf-accent:#d97706;--cf-accent-soft:rgba(217,119,6,0.12);--cf-green:#1a7f37;--cf-amber:#9a6700;--cf-red:#cf222e;--cf-spark:#d97706;--cf-spark-bg:rgba(217,119,6,0.12)}}</style><rect width="720" height="140" rx="12" fill="var(--cf-bg)" stroke="var(--cf-border)"/><text x="18" y="26" font-size="13" font-weight="600" fill="var(--cf-text)">braedonsaunders/bunkhouse</text><text x="702" y="26" text-anchor="end" font-size="10" fill="var(--cf-text-faint)" font-family="ui-monospace,SFMono-Regular,Menlo,monospace">@d91b6b3</text><g transform="translate(18,46)"><text x="0" y="0" font-size="9" font-weight="600" fill="var(--cf-text-dim)" letter-spacing="0.8">FILES</text><text x="0" y="28" font-size="22" font-weight="700" fill="var(--cf-text)">377</text><g transform="translate(0,40)"><svg width="64" height="14" viewBox="0 0 64 14" preserveAspectRatio="none"><path d="M0 0 L3.56 14 L7.11 13.95 L10.67 13.95 L14.22 13.64 L17.78 13.64 L21.33 13.64 L24.89 13.64 L28.44 13.64 L32 13.64 L35.56 13.64 L39.11 13.64 L42.67 13.59 L46.22 13.59 L49.78 13.59 L53.33 13.32 L56.89 13.23 L60.44 13.23 L64 13.23 L64 14 L0 14 Z" fill="var(--cf-spark-bg)" stroke="none"/><path d="M0 0 L3.56 14 L7.11 13.95 L10.67 13.95 L14.22 13.64 L17.78 13.64 L21.33 13.64 L24.89 13.64 L28.44 13.64 L32 13.64 L35.56 13.64 L39.11 13.64 L42.67 13.59 L46.22 13.59 L49.78 13.59 L53.33 13.32 L56.89 13.23 L60.44 13.23 L64 13.23" fill="none" stroke="var(--cf-spark)" stroke-width="1.4" stroke-linecap="round" stroke-linejoin="round"/></svg></g></g><g transform="translate(154.8,46)"><text x="0" y="0" font-size="9" font-weight="600" fill="var(--cf-text-dim)" letter-spacing="0.8">FNS</text><text x="0" y="28" font-size="22" font-weight="700" fill="var(--cf-text)">1.1K</text><g transform="translate(0,40)"><svg width="64" height="14" viewBox="0 0 64 14" preserveAspectRatio="none"><path d="M0 0 L3.56 14 L7.11 14 L10.67 14 L14.22 13.75 L17.78 13.75 L21.33 13.75 L24.89 13.75 L28.44 13.75 L32 13.75 L35.56 13.75 L39.11 13.75 L42.67 13.71 L46.22 13.71 L49.78 13.71 L53.33 13.47 L56.89 13.26 L60.44 13.26 L64 13.26 L64 14 L0 14 Z" fill="var(--cf-spark-bg)" stroke="none"/><path d="M0 0 L3.56 14 L7.11 14 L10.67 14 L14.22 13.75 L17.78 13.75 L21.33 13.75 L24.89 13.75 L28.44 13.75 L32 13.75 L35.56 13.75 L39.11 13.75 L42.67 13.71 L46.22 13.71 L49.78 13.71 L53.33 13.47 L56.89 13.26 L60.44 13.26 L64 13.26" fill="none" stroke="var(--cf-spark)" stroke-width="1.4" stroke-linecap="round" stroke-linejoin="round"/></svg></g></g><g transform="translate(291.6,46)"><text x="0" y="0" font-size="9" font-weight="600" fill="var(--cf-text-dim)" letter-spacing="0.8">LOC</text><text x="0" y="28" font-size="22" font-weight="700" fill="var(--cf-text)">109.8K</text><g transform="translate(0,40)"><svg width="64" height="14" viewBox="0 0 64 14" preserveAspectRatio="none"><path d="M0 0 L3.56 14 L7.11 13.99 L10.67 13.99 L14.22 13.85 L17.78 13.85 L21.33 13.85 L24.89 13.85 L28.44 13.85 L32 13.85 L35.56 13.83 L39.11 13.83 L42.67 13.79 L46.22 13.78 L49.78 13.77 L53.33 13.64 L56.89 13.51 L60.44 13.51 L64 13.51 L64 14 L0 14 Z" fill="var(--cf-spark-bg)" stroke="none"/><path d="M0 0 L3.56 14 L7.11 13.99 L10.67 13.99 L14.22 13.85 L17.78 13.85 L21.33 13.85 L24.89 13.85 L28.44 13.85 L32 13.85 L35.56 13.83 L39.11 13.83 L42.67 13.79 L46.22 13.78 L49.78 13.77 L53.33 13.64 L56.89 13.51 L60.44 13.51 L64 13.51" fill="none" stroke="var(--cf-spark)" stroke-width="1.4" stroke-linecap="round" stroke-linejoin="round"/></svg></g></g><g transform="translate(428.40000000000003,46)"><text x="0" y="0" font-size="9" font-weight="600" fill="var(--cf-text-dim)" letter-spacing="0.8">LANGS</text><text x="0" y="28" font-size="22" font-weight="700" fill="var(--cf-text)">12</text><g transform="translate(0,40)"><svg width="64" height="14" viewBox="0 0 64 14" preserveAspectRatio="none"><path d="M0 7 L3.56 7 L7.11 7 L10.67 7 L14.22 7 L17.78 7 L21.33 7 L24.89 7 L28.44 7 L32 7 L35.56 7 L39.11 7 L42.67 7 L46.22 7 L49.78 7 L53.33 7 L56.89 7 L60.44 7 L64 7 L64 14 L0 14 Z" fill="var(--cf-spark-bg)" stroke="none"/><path d="M0 7 L3.56 7 L7.11 7 L10.67 7 L14.22 7 L17.78 7 L21.33 7 L24.89 7 L28.44 7 L32 7 L35.56 7 L39.11 7 L42.67 7 L46.22 7 L49.78 7 L53.33 7 L56.89 7 L60.44 7 L64 7" fill="none" stroke="var(--cf-spark)" stroke-width="1.4" stroke-linecap="round" stroke-linejoin="round"/></svg></g></g><g transform="translate(565.2,46)"><text x="0" y="0" font-size="9" font-weight="600" fill="var(--cf-text-dim)" letter-spacing="0.8">TESTS</text><text x="0" y="28" font-size="22" font-weight="700" fill="var(--cf-text)">1</text><g transform="translate(0,40)"><svg width="64" height="14" viewBox="0 0 64 14" preserveAspectRatio="none"><path d="M0 14 L3.56 14 L7.11 0 L10.67 0 L14.22 0 L17.78 0 L21.33 0 L24.89 0 L28.44 0 L32 0 L35.56 0 L39.11 0 L42.67 0 L46.22 0 L49.78 0 L53.33 0 L56.89 0 L60.44 0 L64 0 L64 14 L0 14 Z" fill="var(--cf-spark-bg)" stroke="none"/><path d="M0 14 L3.56 14 L7.11 0 L10.67 0 L14.22 0 L17.78 0 L21.33 0 L24.89 0 L28.44 0 L32 0 L35.56 0 L39.11 0 L42.67 0 L46.22 0 L49.78 0 L53.33 0 L56.89 0 L60.44 0 L64 0" fill="none" stroke="var(--cf-spark)" stroke-width="1.4" stroke-linecap="round" stroke-linejoin="round"/></svg></g></g><a href="https://github.com/braedonsaunders/codeflow" target="_blank"><text x="702" y="130" text-anchor="end" font-size="9" fill="var(--cf-text-faint)">powered by <tspan font-weight="600" fill="var(--cf-accent)">codeflow</tspan></text></a></svg>